<svg width="64" height="40" viewBox="0 0 64 40" fill="none" xmlns="http://www.w3.org/2000/svg">
<path d="M30.001 9.47901H22.2475C22.023 9.47901 21.8078 9.38953 21.649 9.23025C21.4903 9.07096 21.4011 8.85493 21.4011 8.62967V0.849341C21.4011 0.624082 21.4903 0.408049 21.649 0.248766C21.8078 0.089484 22.023 0 22.2475 0H30.001C30.2255 0 30.4408 0.089484 30.5995 0.248766C30.7582 0.408049 30.8474 0.624082 30.8474 0.849341V8.62967C30.8474 8.85493 30.7582 9.07096 30.5995 9.23025C30.4408 9.38953 30.2255 9.47901 30.001 9.47901V9.47901Z" fill="#AE2573"/>
<path d="M30.5985 0.249806L28.9554 1.89853H23.2886V7.58503L21.6501 9.22921C21.571 9.15085 21.5083 9.05748 21.4655 8.95455C21.4228 8.85162 21.4009 8.74118 21.4011 8.62967V0.849341C21.4011 0.624082 21.4903 0.408049 21.649 0.248766C21.8078 0.089484 22.0231 0 22.2475 0H30.001C30.2253 0.000551309 30.4401 0.0903971 30.5985 0.249806V0.249806Z" fill="#CC197E"/>
<path d="M30.8475 0.849046V8.62938C30.8475 8.85463 30.7583 9.07067 30.5996 9.22995C30.4408 9.38923 30.2255 9.47872 30.0011 9.47872H22.2476C22.0233 9.47816 21.8085 9.38832 21.6501 9.22891L23.2886 7.58473H28.9555V1.89823L30.5985 0.249512C30.7574 0.408369 30.8469 0.623998 30.8475 0.849046V0.849046Z" fill="#A81669"/>
<path d="M55.1907 22.118H47.4375C47.213 22.118 46.9977 22.0285 46.839 21.8693C46.6802 21.71 46.5911 21.494 46.5911 21.2687V13.4888C46.5923 13.2643 46.682 13.0495 46.8406 12.8912C46.9992 12.7329 47.2138 12.644 47.4375 12.644H55.1907C55.4144 12.644 55.629 12.7329 55.7876 12.8912C55.9462 13.0495 56.0359 13.2643 56.0371 13.4888V21.2687C56.0371 21.494 55.9479 21.71 55.7892 21.8693C55.6305 22.0285 55.4152 22.118 55.1907 22.118V22.118Z" fill="#AE2573"/>
<path d="M55.811 12.8887L54.1726 14.5373H48.4832V20.2235L46.8403 21.8676C46.7608 21.7896 46.6978 21.6963 46.655 21.5933C46.6123 21.4903 46.5906 21.3797 46.5913 21.2681V13.4882C46.5913 13.2629 46.6805 13.0469 46.8392 12.8876C46.998 12.7284 47.2132 12.6389 47.4377 12.6389H55.191C55.3058 12.6364 55.4199 12.6572 55.5265 12.7001C55.633 12.7431 55.7298 12.8072 55.811 12.8887V12.8887Z" fill="#CC197E"/>
<path d="M56.0372 13.4887V21.2686C56.0378 21.3803 56.0163 21.491 55.974 21.5943C55.9316 21.6976 55.8693 21.7915 55.7906 21.8705C55.7119 21.9495 55.6183 22.012 55.5154 22.0545C55.4124 22.0969 55.3021 22.1185 55.1908 22.1179H47.4375C47.2133 22.1173 46.9984 22.0275 46.8401 21.8681L48.4831 20.224H54.1498V14.5378L55.8109 12.8892C55.9614 13.0517 56.0427 13.2668 56.0372 13.4887V13.4887Z" fill="#A81669"/>
<path d="M42.596 9.47901H34.8426C34.6181 9.47901 34.4029 9.38953 34.2441 9.23025C34.0854 9.07096 33.9962 8.85493 33.9962 8.62967V0.849341C33.9962 0.624082 34.0854 0.408049 34.2441 0.248766C34.4029 0.089484 34.6181 0 34.8426 0H42.596C42.8205 0 43.0358 0.089484 43.1945 0.248766C43.3532 0.408049 43.4424 0.624082 43.4424 0.849341V8.62967C43.4424 8.85493 43.3532 9.07096 43.1945 9.23025C43.0358 9.38953 42.8205 9.47901 42.596 9.47901V9.47901Z" fill="#2F2A95"/>
<path d="M43.1934 0.249806L41.5549 1.89853H35.8881V7.58503L34.2587 9.22921C34.1796 9.15085 34.1169 9.05748 34.0742 8.95455C34.0314 8.85162 34.0095 8.74118 34.0098 8.62967V0.849341C34.0098 0.624082 34.0989 0.408049 34.2577 0.248766C34.4164 0.089484 34.6317 0 34.8562 0H42.596C42.8202 0.000551309 43.0351 0.0903971 43.1934 0.249806V0.249806Z" fill="#3235A6"/>
<path d="M43.4424 0.849046V8.62938C43.4424 8.85463 43.3533 9.07067 43.1945 9.22995C43.0358 9.38923 42.8205 9.47872 42.596 9.47872H34.8427C34.6231 9.4746 34.4138 9.38503 34.2588 9.22891L35.9018 7.58473H41.555V1.89823L43.1935 0.249512C43.3524 0.408369 43.4419 0.623998 43.4424 0.849046V0.849046Z" fill="#292C82"/>
<path d="M17.4058 22.1179H9.65232C9.42783 22.1179 9.21255 22.0284 9.05382 21.8692C8.89508 21.7099 8.80591 21.4939 8.80591 21.2686V13.4883C8.8071 13.2639 8.89681 13.049 9.05541 12.8907C9.21401 12.7324 9.42862 12.6436 9.65232 12.6436H17.4058C17.6295 12.6436 17.8441 12.7324 18.0027 12.8907C18.1613 13.049 18.251 13.2639 18.2522 13.4883V21.2686C18.2522 21.4939 18.163 21.7099 18.0043 21.8692C17.8455 22.0284 17.6303 22.1179 17.4058 22.1179V22.1179Z" fill="#2F2A95"/>
<path d="M18.0033 12.8885L16.3602 14.5372H10.6934V20.2236L9.05487 21.8678C8.97539 21.7897 8.91239 21.6964 8.86962 21.5934C8.82685 21.4904 8.80519 21.3798 8.80593 21.2683V13.488C8.80533 13.3763 8.82681 13.2656 8.86913 13.1623C8.91146 13.059 8.97378 12.9651 9.0525 12.8861C9.13121 12.8071 9.22476 12.7446 9.32772 12.7021C9.43068 12.6596 9.54101 12.6381 9.65233 12.6387H17.4058C17.6298 12.6407 17.8441 12.7303 18.0033 12.8885Z" fill="#3235A6"/>
<path d="M18.2524 13.4882V21.2684C18.2524 21.4937 18.1632 21.7097 18.0045 21.869C17.8457 22.0283 17.6305 22.1178 17.406 22.1178H9.65252C9.54139 22.118 9.43134 22.096 9.32876 22.0531C9.22618 22.0103 9.13314 21.9473 9.05505 21.868L10.6936 20.2238H16.3604V14.5374L18.0034 12.8887C18.1623 13.0475 18.2518 13.2632 18.2524 13.4882V13.4882Z" fill="#292C82"/>
<path d="M17.4058 9.47901H9.65232C9.42783 9.47901 9.21255 9.38953 9.05382 9.23025C8.89508 9.07096 8.80591 8.85493 8.80591 8.62967V0.849341C8.80591 0.624082 8.89508 0.408049 9.05382 0.248766C9.21255 0.089484 9.42783 0 9.65232 0H17.4058C17.6303 0 17.8455 0.089484 18.0043 0.248766C18.163 0.408049 18.2522 0.624082 18.2522 0.849341V8.62967C18.2522 8.85493 18.163 9.07096 18.0043 9.23025C17.8455 9.38953 17.6303 9.47901 17.4058 9.47901Z" fill="#EE2737"/>
<path d="M18.0032 0.249806L16.3602 1.89853H10.6934V7.58503L9.05485 9.22921C8.97579 9.15085 8.91306 9.05748 8.87032 8.95455C8.82758 8.85162 8.80568 8.74118 8.80591 8.62967V0.849341C8.80591 0.624082 8.89508 0.408049 9.05382 0.248766C9.21255 0.089484 9.42784 0 9.65232 0H17.4058C17.63 0.000551309 17.8449 0.0903971 18.0032 0.249806V0.249806Z" fill="#FF1D29"/>
<path d="M18.2523 0.849046V8.62937C18.2523 8.85463 18.1631 9.07067 18.0044 9.22995C17.8456 9.38923 17.6303 9.47871 17.4059 9.47871H9.6524C9.54127 9.47894 9.43121 9.45697 9.32864 9.41408C9.22606 9.37119 9.13302 9.30825 9.05493 9.22891L10.6934 7.58473H16.3603V1.89823L18.0033 0.249512C18.1622 0.408369 18.2517 0.623998 18.2523 0.849046Z" fill="#D61822"/>
<path d="M42.5961 22.1179H34.8427C34.6183 22.1179 34.403 22.0284 34.2442 21.8692C34.0855 21.7099 33.9963 21.4939 33.9963 21.2686V13.4883C33.9975 13.2639 34.0872 13.049 34.2458 12.8907C34.4044 12.7324 34.619 12.6436 34.8427 12.6436H42.5961C42.8198 12.6436 43.0344 12.7324 43.193 12.8907C43.3516 13.049 43.4413 13.2639 43.4425 13.4883V21.2686C43.4425 21.4939 43.3533 21.7099 43.1946 21.8692C43.0359 22.0284 42.8206 22.1179 42.5961 22.1179V22.1179Z" fill="#EE2737"/>
<path d="M43.1934 12.8885L41.555 14.5372H35.8882V20.2236L34.2587 21.8678C34.1792 21.7897 34.1162 21.6964 34.0735 21.5934C34.0307 21.4904 34.009 21.3798 34.0098 21.2683V13.488C34.0098 13.2627 34.099 13.0467 34.2577 12.8874C34.4164 12.7282 34.6317 12.6387 34.8562 12.6387H42.596C42.82 12.6407 43.0343 12.7303 43.1934 12.8885Z" fill="#FF1D29"/>
<path d="M43.4424 13.4882V21.2684C43.4424 21.4937 43.3533 21.7097 43.1945 21.869C43.0358 22.0283 42.8205 22.1178 42.596 22.1178H34.8427C34.6231 22.1137 34.4138 22.0241 34.2588 21.868L35.9018 20.2238H41.555V14.5374L43.1935 12.8887C43.3524 13.0475 43.4419 13.2632 43.4424 13.4882V13.4882Z" fill="#D61822"/>
<path d="M6.58675 29.3206C6.0186 28.9853 5.37042 28.8129 4.71219 28.8219C4.08904 28.816 3.47402 28.9649 2.92147 29.2556C2.59252 29.4262 2.28446 29.6351 2.00354 29.8778L1.88531 28.9824H0V39.9879H2.12823V35.9291C2.3427 36.1157 2.58047 36.2732 2.83549 36.3975C3.32432 36.64 3.86213 36.7655 4.40693 36.7639C5.11185 36.775 5.80894 36.6136 6.43842 36.2934C7.02504 35.9836 7.51309 35.5131 7.84649 34.9361C8.20537 34.3017 8.38597 33.5806 8.36887 32.8504C8.38551 32.1205 8.22461 31.3977 7.90023 30.7451C7.60315 30.1557 7.14808 29.6622 6.58675 29.3206ZM5.29692 34.7171C4.96715 34.891 4.60059 34.9817 4.22851 34.9817C3.85642 34.9817 3.48986 34.891 3.16009 34.7171C2.84611 34.5433 2.58745 34.2831 2.41414 33.967C2.22405 33.6172 2.12842 33.2231 2.13683 32.8243C2.12653 32.426 2.22229 32.0322 2.41414 31.6839C2.59038 31.3733 2.84861 31.1181 3.16009 30.9467C3.49029 30.7743 3.85668 30.6843 4.22851 30.6843C4.60033 30.6843 4.96672 30.7743 5.29692 30.9467C5.60947 31.1174 5.86856 31.3727 6.04502 31.6839C6.24264 32.0307 6.34504 32.4244 6.34169 32.8243C6.34944 33.2233 6.25306 33.6174 6.06222 33.967C5.88718 34.2855 5.62434 34.5461 5.30552 34.7171H5.29692Z" fill="#160B31"/>
<path d="M24.0619 28.9889L21.996 33.6504L19.9236 28.9889H17.5074L20.9061 36.1156L19.197 39.9879H21.3511L26.0934 28.9889H24.0619Z" fill="#160B31"/>
<path d="M55.8025 29.0995C55.3913 29.284 55.0107 29.5312 54.6739 29.8323C54.5096 29.9767 54.3598 30.1372 54.2268 30.3115L54.13 28.9932H52.1845V36.7747H54.3128V33.271C54.312 32.8668 54.4173 32.4696 54.618 32.1197C54.8198 31.7605 55.1119 31.4613 55.465 31.2524C55.8032 31.0428 56.1924 30.9318 56.5893 30.9315C56.6345 30.9315 56.6818 30.9315 56.7398 30.9315H57.3525V28.8371H56.8301C56.4736 28.8542 56.1242 28.9435 55.8025 29.0995Z" fill="#160B31"/>
<path d="M63.0944 33.1301C62.9145 32.849 62.6761 32.6107 62.3957 32.4319C62.0982 32.2422 61.7753 32.0962 61.437 31.9983C61.1897 31.9094 60.9382 31.8205 60.6803 31.7359C60.4796 31.6745 60.2927 31.5744 60.1299 31.4411C60.0752 31.3947 60.0328 31.3354 60.0065 31.2684C59.9803 31.2014 59.9709 31.1288 59.9794 31.0573C59.9764 30.9575 60.0118 30.8603 60.0783 30.7863C60.1602 30.6871 60.2672 30.6122 60.3879 30.5695C60.5371 30.5167 60.6942 30.4903 60.8522 30.4914C61.0846 30.5078 61.3126 30.5628 61.5272 30.654C61.7688 30.7446 61.9886 30.8857 62.1722 31.0681L62.3592 31.2589L63.2728 29.8258L63.1266 29.7022C62.7885 29.4078 62.3942 29.1864 61.9679 29.0518C61.5093 28.921 61.0343 28.8582 60.5577 28.8653C60.035 28.8496 59.517 28.969 59.0529 29.2122C58.6819 29.4108 58.3717 29.7078 58.1557 30.0712C57.9398 30.4345 57.8263 30.8505 57.8276 31.2741C57.8203 31.7856 57.9984 32.2821 58.3285 32.6704C58.7137 33.095 59.2076 33.4041 59.7559 33.5637C60.0267 33.6396 60.2847 33.7241 60.5233 33.8109C60.7171 33.8771 60.8977 33.9777 61.0565 34.1079C61.1496 34.2048 61.2056 34.3319 61.2142 34.4666C61.2229 34.6013 61.1837 34.7347 61.1038 34.8429C61.0148 34.9397 60.8997 35.0083 60.7727 35.0402C60.5962 35.0884 60.4138 35.1117 60.231 35.1096C59.958 35.1028 59.6897 35.037 59.4442 34.9166C59.1321 34.7654 58.8456 34.5657 58.595 34.3247L58.4209 34.1599L57.4385 35.4608L57.5546 35.5931C57.8981 35.9869 58.3332 36.2886 58.8207 36.4712C59.3188 36.6643 59.8478 36.7635 60.3814 36.7639C60.9513 36.7824 61.5171 36.6611 62.0303 36.4105C62.4521 36.196 62.8014 35.8602 63.0342 35.4456C63.2501 35.0553 63.3626 34.6155 63.361 34.1686C63.37 33.8041 63.2777 33.4443 63.0944 33.1301Z" fill="#160B31"/>
<path d="M40.5975 29.4073C39.9882 29.0674 39.301 28.8947 38.6047 28.9065C37.8919 28.8953 37.1886 29.0724 36.5647 29.4203C35.9765 29.7524 35.489 30.2395 35.1544 30.8296C34.8067 31.4532 34.6301 32.1589 34.6428 32.8742C34.6296 33.5929 34.8118 34.3014 35.1695 34.9231C35.5241 35.5225 36.0379 36.0099 36.6528 36.3302C37.3365 36.6838 38.0967 36.8604 38.8649 36.8441C39.4701 36.8532 40.0714 36.745 40.6362 36.5254C41.1435 36.3228 41.5964 36.0027 41.9583 35.5909L42.083 35.45L40.8813 34.0602L40.7201 34.2293C40.4949 34.4671 40.2233 34.6553 39.9225 34.7822C39.5993 34.9123 39.2537 34.9764 38.9057 34.9708C38.5027 34.9805 38.1032 34.8927 37.7406 34.715C37.428 34.5601 37.1683 34.3148 36.9946 34.0103C36.9259 33.8936 36.8711 33.7692 36.8312 33.6396H42.4356L42.4592 33.4488C42.4592 33.3707 42.4764 33.2818 42.4807 33.1799C42.485 33.078 42.4807 32.9956 42.4807 32.9284C42.4976 32.1903 42.3243 31.4604 41.9777 30.8101C41.655 30.2229 41.1773 29.7373 40.5975 29.4073ZM36.9624 31.647C37.1057 31.3635 37.3305 31.13 37.6073 30.9771C37.911 30.8127 38.2515 30.7298 38.5962 30.7364C38.9373 30.7275 39.2748 30.8098 39.5743 30.9749C39.7746 31.0941 39.9494 31.2523 40.0885 31.4403C40.2277 31.6282 40.3283 31.8422 40.3847 32.0698H36.8011C36.838 31.9229 36.8921 31.781 36.9624 31.647Z" fill="#160B31"/>
<path d="M14.9771 29.5656C14.8571 29.4681 14.7291 29.381 14.5945 29.3054C14.0604 29.0111 13.4596 28.8617 12.851 28.8718C12.1584 28.861 11.4748 29.0313 10.8669 29.3661C10.2834 29.6932 9.80241 30.1784 9.47813 30.7668C9.13328 31.4044 8.95986 32.122 8.9751 32.8482C8.95837 33.578 9.13183 34.2994 9.47813 34.9405C9.80405 35.5254 10.2849 36.0073 10.8669 36.3324C11.4748 36.6672 12.1584 36.8375 12.851 36.8267C13.4687 36.8389 14.079 36.6895 14.6224 36.3931C14.7754 36.305 14.9195 36.2019 15.0524 36.0852V36.7704H17.1032V28.9889H14.9728L14.9771 29.5656ZM13.0553 34.9405C12.7113 34.9455 12.3721 34.8579 12.0728 34.6868C11.7779 34.5168 11.5371 34.2656 11.3785 33.9626C11.2003 33.6199 11.1108 33.2373 11.1184 32.8504C11.1093 32.4649 11.1981 32.0835 11.3763 31.7424C11.5392 31.4447 11.7801 31.1979 12.0728 31.0291C12.3721 30.858 12.7113 30.7704 13.0553 30.7754C13.4034 30.77 13.7468 30.8575 14.0506 31.0291C14.3427 31.1979 14.583 31.4448 14.745 31.7424C14.9242 32.0831 15.013 32.4648 15.0029 32.8504C15.0115 33.2374 14.922 33.6202 14.7428 33.9626C14.585 34.2655 14.3449 34.5167 14.0506 34.6868C13.7468 34.8584 13.4034 34.9459 13.0553 34.9405Z" fill="#160B31"/>
<path d="M48.9256 29.5656C48.806 29.4686 48.6787 29.3816 48.5451 29.3054C48.0101 29.0114 47.4087 28.862 46.7995 28.8718C46.1088 28.8624 45.4275 29.0335 44.8217 29.3683C44.2379 29.6948 43.7567 30.1801 43.433 30.7689C43.0875 31.4064 42.9134 32.124 42.9278 32.8504C42.9118 33.5804 43.086 34.3018 43.433 34.9426C43.7589 35.5276 44.2398 36.0095 44.8217 36.3346C45.429 36.6694 46.1118 36.8397 46.8038 36.8289C47.4221 36.8411 48.0331 36.6917 48.5773 36.3953C48.73 36.3067 48.874 36.2036 49.0073 36.0874V36.7725H51.0559V28.9889H48.9234L48.9256 29.5656ZM47.0037 34.9405C46.6598 34.9449 46.3208 34.8574 46.0213 34.6868C45.727 34.5167 45.4869 34.2655 45.3291 33.9626C45.1509 33.6199 45.0614 33.2373 45.069 32.8504C45.0588 32.4648 45.1477 32.0831 45.3269 31.7424C45.4889 31.4448 45.7292 31.1979 46.0213 31.0291C46.3208 30.8585 46.6598 30.771 47.0037 30.7754C47.3526 30.7697 47.6967 30.8572 48.0012 31.0291C48.2917 31.1985 48.5305 31.4453 48.6912 31.7424C48.8705 32.0831 48.9593 32.4648 48.9492 32.8504C48.9574 33.2371 48.8687 33.6197 48.6912 33.9626C48.5335 34.2655 48.2933 34.5167 47.999 34.6868C47.6952 34.8583 47.3519 34.9458 47.0037 34.9405Z" fill="#160B31"/>
<path d="M31.8654 29.7477C31.6249 29.5296 31.3549 29.3471 31.0635 29.2057C30.5144 28.9428 29.9128 28.8107 29.305 28.8198C28.6387 28.8188 27.9847 29.0009 27.4133 29.3466C26.8307 29.6921 26.3436 30.1797 25.9966 30.7646C25.6313 31.3915 25.4453 32.1082 25.4592 32.8352C25.4494 33.5381 25.6253 34.2311 25.9687 34.8429C26.2971 35.4214 26.768 35.9046 27.3359 36.2457C27.8999 36.5873 28.5462 36.7658 29.204 36.7617C29.9038 36.783 30.5955 36.6066 31.2011 36.2522C31.4154 36.1196 31.6137 35.9624 31.7923 35.7839V36.2934C31.8008 36.6515 31.7148 37.0054 31.5429 37.3189C31.3752 37.5748 31.1345 37.6745 30.8249 37.8176C30.456 37.9744 30.0577 38.0484 29.6576 38.0344C29.4019 38.0381 29.147 38.0045 28.9009 37.9347L28.6988 37.9L27.9013 39.7061L28.1162 39.7819L28.1807 39.8036C28.6623 39.9416 29.1614 40.0073 29.6619 39.9988C30.4326 40.0171 31.1967 39.8507 31.8912 39.5131C32.4937 39.2138 33.0069 38.759 33.3788 38.1949C33.7413 37.639 33.9314 36.9868 33.9248 36.3216V28.9889H31.9427L31.8654 29.7477ZM27.8884 33.967C27.6983 33.6172 27.6026 33.2231 27.6111 32.8243C27.6008 32.426 27.6965 32.0322 27.8884 31.6839C28.0646 31.3733 28.3228 31.1181 28.6343 30.9467C28.9645 30.7743 29.3309 30.6843 29.7027 30.6843C30.0746 30.6843 30.441 30.7743 30.7711 30.9467C31.0837 31.1174 31.3428 31.3727 31.5193 31.6839C31.7101 32.0326 31.8058 32.4261 31.7966 32.8243C31.8043 33.2233 31.7079 33.6174 31.5171 33.967C31.3444 34.2836 31.0856 34.5438 30.7711 34.7171C30.4414 34.891 30.0748 34.9817 29.7027 34.9817C29.3307 34.9817 28.9641 34.891 28.6343 34.7171C28.3203 34.5433 28.0617 34.2831 27.8884 33.967Z" fill="#160B31"/>
</svg>
